<?xml version="1.0" standalone="no"?>
<!DOCTYPE svg PUBLIC "-//W3C//DTD SVG 20010904//EN"
 "http://www.w3.org/TR/2001/REC-SVG-20010904/DTD/svg10.dtd">
<svg version="1.0" xmlns="http://www.w3.org/2000/svg"
 width="700.000000pt" height="700.000000pt" viewBox="0 0 700.000000 700.000000"
 preserveAspectRatio="xMidYMid meet">
<metadata>
Created by potrace 1.11, written by Peter Selinger 2001-2013
</metadata>
<g transform="translate(0.000000,700.000000) scale(0.100000,-0.100000)"
fill="#000000" stroke="none">
<path d="M2857 6560 c-10 -4 -13 -55 -13 -220 l1 -214 218 -1 219 0 -1 -200
c0 -110 0 -211 -1 -226 0 -22 -4 -25 -42 -28 -149 -8 -471 -100 -657 -187 -84
-39 -238 -124 -266 -146 -18 -15 -157 -113 -180 -127 -21 -14 -28 -8 -174 137
-83 83 -151 155 -151 159 0 4 68 76 150 158 l151 151 -152 152 c-83 84 -154
152 -157 152 -11 0 -926 -920 -921 -925 2 -2 71 -72 153 -155 l150 -151 151
151 c82 82 154 150 158 150 5 0 77 -69 161 -152 l153 -153 -33 -45 c-19 -25
-38 -51 -44 -57 -36 -43 -139 -216 -190 -318 -83 -168 -161 -392 -185 -536 -3
-19 -10 -59 -15 -89 -5 -30 -11 -70 -12 -87 l-2 -33 -226 0 -225 0 1 208 c0
114 -1 212 -3 218 -3 7 -74 10 -218 10 l-215 0 -1 -30 c-7 -240 -2 -1276 6
-1277 30 -5 425 -3 426 1 1 3 2 101 3 218 l1 214 218 -1 c120 0 222 -3 227 -6
6 -4 10 -21 10 -40 0 -33 47 -283 57 -298 2 -4 7 -19 9 -34 10 -52 95 -274
141 -365 58 -115 134 -240 207 -338 31 -41 56 -79 56 -83 0 -11 -296 -307
-307 -307 -5 0 -44 35 -85 78 -42 42 -110 110 -150 150 l-75 73 -139 -139
c-76 -76 -145 -146 -153 -156 -12 -15 34 -64 448 -478 254 -253 464 -459 466
-457 2 2 72 71 155 153 l151 149 -33 34 c-18 19 -86 87 -150 151 -65 64 -118
121 -118 125 0 4 69 77 153 161 l153 153 76 -56 c281 -208 560 -331 907 -400
57 -12 118 -21 136 -21 19 0 37 -5 40 -10 6 -9 8 -159 5 -390 l0 -55 -217 0
-218 0 -1 -218 -1 -217 31 -1 c17 0 312 -1 656 -1 l625 -1 1 219 0 219 -214 0
c-117 0 -215 3 -218 6 -6 10 -7 430 0 436 3 3 58 14 123 25 343 55 689 201
957 405 32 24 64 47 72 50 13 5 314 -286 314 -304 0 -5 -39 -48 -87 -95 -49
-48 -116 -115 -151 -150 l-63 -64 151 -150 c83 -82 153 -151 155 -153 5 -4
925 913 925 922 0 2 -68 73 -152 156 l-152 152 -150 -150 c-83 -83 -155 -151
-160 -151 -4 0 -77 69 -161 154 l-154 153 28 34 c115 139 262 404 335 600 55
149 109 378 118 497 l2 32 83 0 c46 1 128 1 183 1 55 0 119 0 143 -1 l42 0 0
-211 c0 -116 2 -214 5 -218 3 -4 101 -7 218 -7 184 0 212 2 213 16 1 20 1
1272 0 1286 -1 7 -69 10 -218 10 l-218 -1 0 -215 0 -215 -224 0 -225 0 -13 90
c-30 215 -101 442 -200 645 -56 115 -169 296 -236 379 l-35 44 153 154 c130
131 157 153 172 144 10 -5 81 -73 157 -150 135 -137 140 -141 159 -124 41 38
287 287 287 291 0 8 -914 922 -922 922 -3 0 -74 -68 -158 -152 l-151 -151 133
-136 c73 -74 141 -141 151 -149 9 -7 17 -18 17 -23 0 -12 -296 -309 -308 -309
-5 0 -27 14 -48 31 -224 182 -634 369 -908 414 -17 3 -56 10 -86 15 -30 5 -68
10 -85 12 -28 3 -30 7 -35 48 -3 25 -4 126 -2 225 l3 181 207 -1 c114 -1 212
1 218 2 12 4 14 416 2 429 -9 8 -1271 12 -1291 4z m933 -1334 c488 -89 898
-355 1165 -756 66 -99 136 -233 174 -335 13 -33 27 -69 31 -80 24 -62 55 -198
77 -340 10 -63 10 -352 0 -427 -75 -588 -442 -1101 -972 -1358 -133 -65 -263
-111 -380 -136 -164 -35 -202 -39 -400 -38 -184 1 -233 7 -419 48 -96 22 -340
119 -398 158 -14 10 -29 18 -33 18 -3 0 -32 16 -63 36 -324 207 -570 506 -707
864 -81 208 -115 412 -110 655 2 94 6 184 9 200 4 17 13 66 21 111 25 133 122
409 161 455 8 8 14 21 14 28 0 6 8 24 18 39 11 15 40 60 65 99 53 83 57 87
150 195 239 275 604 484 962 552 155 29 192 32 365 31 116 -1 207 -7 270 -19z"/>
<path d="M3303 4801 c-83 -21 -177 -104 -215 -189 -32 -72 -29 -189 7 -264 80
-168 272 -237 438 -157 120 57 191 182 182 318 -8 116 -69 207 -176 265 -43
24 -68 30 -129 32 -41 2 -89 -1 -107 -5z"/>
<path d="M4420 3930 c-144 -26 -262 -167 -262 -312 0 -137 70 -248 192 -306
73 -35 190 -37 263 -4 62 28 137 99 167 159 34 69 39 179 11 254 -35 92 -119
175 -203 200 -43 13 -124 18 -168 9z"/>
<path d="M2428 3706 c-85 -23 -163 -87 -206 -171 -19 -38 -26 -70 -30 -130 -4
-70 -1 -87 21 -137 94 -211 351 -271 517 -121 177 159 137 441 -77 540 -62 29
-156 37 -225 19z"/>
<path d="M3440 3710 c-196 -57 -209 -338 -21 -412 50 -20 136 -16 180 7 124
64 155 234 63 342 -47 54 -152 84 -222 63z"/>
<path d="M3558 2839 c-98 -15 -192 -83 -239 -173 -29 -53 -32 -70 -32 -157 0
-109 43 -194 133 -260 83 -61 204 -76 305 -38 89 33 167 114 193 201 24 75 23
148 -2 217 -44 122 -146 196 -296 216 -8 1 -36 -2 -62 -6z"/>
</g>
</svg>
